<svg viewBox="0 0 180 180" xmlns="http://www.w3.org/2000/svg">
  <g fill="none" fill-rule="evenodd">
    <circle fill="#000" cx="90" cy="90" r="90"/>
    <path d="M80 37c-28.978 0-52.525 23.257-52.993 52.124L27 90h53V37Z" fill="#A6DEEB"/>
    <path d="M118.92 37c10.432 0 18.909 8.372 19.077 18.764l.003.316V90H85V37h33.92Zm-7.42 15.9c-5.854 0-10.6 4.746-10.6 10.6 0 5.854 4.746 10.6 10.6 10.6 5.854 0 10.6-4.746 10.6-10.6 0-5.854-4.746-10.6-10.6-10.6ZM138 95H85c0 28.978 23.257 52.525 52.124 52.993L138 148V95Z" fill="#6ABAD0"/>
  </g>
</svg>
