<svg viewBox="0 0 42 41" xmlns="http://www.w3.org/2000/svg">
  <g fill="none" fill-rule="evenodd">
    <path d="M19.635 0C8.899 0 .176 8.567.003 19.2L0 19.525h19.635V0Z" fill="#A6DEEB"/>
    <path d="M34.164 0c3.865 0 7.006 3.084 7.068 6.912v12.612H21.599V0h12.566Zm-2.748 5.857c-2.17 0-3.927 1.748-3.927 3.905 0 2.156 1.758 3.905 3.927 3.905 2.168 0 3.926-1.749 3.926-3.905 0-2.157-1.758-3.905-3.926-3.905ZM41.233 21.476H21.598c0 10.675 8.616 19.349 19.31 19.521l.325.003V21.476Z" fill="#6ABAD0"/>
  </g>
</svg>
