<svg viewBox="0 0 215 41" xmlns="http://www.w3.org/2000/svg">
  <g fill="none" fill-rule="evenodd">
    <path d="M19.635 0C8.899 0 .176 8.567.003 19.2L0 19.525h19.635V0Z" fill="#A6DEEB"/>
    <path d="M34.164 0c3.865 0 7.006 3.084 7.068 6.912v12.612H21.599V0h12.566Zm-2.748 5.857c-2.17 0-3.927 1.748-3.927 3.905 0 2.156 1.758 3.905 3.927 3.905 2.168 0 3.926-1.749 3.926-3.905 0-2.157-1.758-3.905-3.926-3.905ZM41.233 21.476H21.598c0 10.675 8.616 19.349 19.31 19.521l.325.003V21.476Z" fill="#6ABAD0"/>
    <path d="M79.46 22.975c0 4.923 3.004 8.97 9.33 8.97h3.93c6.31 0 9.33-4.047 9.33-8.97V8.785h-5.786v13.249c0 3.8-2.21 4.625-5.517 4.625-3.29 0-5.5-.826-5.5-4.625V8.786h-5.786v14.19Zm-23.738-8.903h6.391v17.873h5.77V14.072h6.39l2.708-5.286H53.014l2.708 5.286Zm50.46 8.903c0 4.923 3.004 8.97 9.33 8.97h13.26l-2.85-5.369h-8.048c-2.666 0-5.905-.413-5.905-4.592v-3.238c0-4.179 3.24-4.592 5.905-4.592h8.047l2.852-5.368h-13.26c-6.327 0-9.33 4.047-9.33 8.97v5.22Zm35.705-13.05-12.012 22.02h6.624l7.15-14.058 2.914 5.716h-3.965l-2.693 5.352h9.386l1.525 2.99h6.607l-12.012-22.02c-.407-.842-1.033-1.14-1.762-1.14-.728 0-1.355.298-1.762 1.14Zm20.254-.87c-1.107-.017-1.98 1.024-1.963 2.28v20.88l5.755-.05v-13l15.065 12.404c.42.414.94.645 1.46.645 1.107.016 1.98-1.04 1.963-2.28V9.055h-5.771v13.033L163.6 9.683c-.42-.396-.94-.628-1.46-.628Zm37.323.87-12.013 22.02h6.625l7.15-14.058 2.914 5.716h-3.965l-2.694 5.352h9.387l1.524 2.99H215l-12.012-22.02c-.407-.842-1.033-1.14-1.762-1.14-.729 0-1.356.298-1.762 1.14Z" fill="#4A5568" fill-rule="nonzero"/>
  </g>
</svg>
